<svg width="52" height="52" viewBox="0 0 52 52" fill="none" xmlns="http://www.w3.org/2000/svg">
<rect x="0.5" y="0.5" width="51" height="51" rx="25.5" fill="#1F1F1F"/>
<rect x="0.5" y="0.5" width="51" height="51" rx="25.5" stroke="#333333"/>
<g clip-path="url(#clip0_616_1116)">
<path d="M36.2234 14H15.7719C14.7922 14 14 14.7734 14 15.7297V36.2656C14 37.2219 14.7922 38 15.7719 38H36.2234C37.2031 38 38 37.2219 38 36.2703V15.7297C38 14.7734 37.2031 14 36.2234 14ZM21.1203 34.4516H17.5578V22.9953H21.1203V34.4516ZM19.3391 21.4344C18.1953 21.4344 17.2719 20.5109 17.2719 19.3719C17.2719 18.2328 18.1953 17.3094 19.3391 17.3094C20.4781 17.3094 21.4016 18.2328 21.4016 19.3719C21.4016 20.5062 20.4781 21.4344 19.3391 21.4344ZM34.4516 34.4516H30.8937V28.8828C30.8937 27.5562 30.8703 25.8453 29.0422 25.8453C27.1906 25.8453 26.9094 27.2937 26.9094 28.7891V34.4516H23.3563V22.9953H26.7687V24.5609H26.8156C27.2891 23.6609 28.4516 22.7094 30.1813 22.7094C33.7859 22.7094 34.4516 25.0813 34.4516 28.1656V34.4516Z" fill="#F51101"/>
</g>
<defs>
<clipPath id="clip0_616_1116">
<rect width="24" height="24" fill="white" transform="translate(14 14)"/>
</clipPath>
</defs>
</svg>
