<svg width="41" height="47" viewBox="0 0 41 47" fill="none" xmlns="http://www.w3.org/2000/svg">
<rect width="41" height="47" fill="#474646"/>
<rect width="1440" height="4636" transform="translate(-663 -213)" fill="black"/>
<g clip-path="url(#clip0_0_1)">
<rect x="-628" y="-95" width="873" height="490" rx="20" fill="#1A1A1A"/>
<path d="M40.4238 38.5137C37.3509 42.0799 33.2577 44.6173 28.6968 45.7833C24.136 46.9493 19.3272 46.6877 14.9197 45.0339C10.5123 43.3801 6.71842 40.4136 4.05045 36.5351C1.38248 32.6566 -0.0311186 28.0529 0.00051944 23.3454C0.0321575 18.638 1.50751 14.0536 4.22737 10.2113C6.94723 6.36905 10.7806 3.45387 15.2099 1.85943C19.6392 0.264987 24.4511 0.0680715 28.9958 1.29527C33.5406 2.52247 37.5993 5.11468 40.6241 8.72189L39.8379 9.3811C36.9481 5.93479 33.0704 3.45821 28.7284 2.28576C24.3863 1.1133 19.7891 1.30143 15.5574 2.82475C11.3257 4.34807 7.6633 7.13321 5.06476 10.8041C2.46623 14.475 1.05668 18.8549 1.02646 23.3523C0.99623 27.8498 2.34677 32.2482 4.89573 35.9537C7.44469 39.6592 11.0693 42.4933 15.2802 44.0733C19.491 45.6534 24.0853 45.9033 28.4427 44.7893C32.8001 43.6753 36.7108 41.2511 39.6466 37.8439L40.4238 38.5137Z" fill="#F51101"/>
<rect x="9" y="10" width="28" height="28" rx="14" fill="#F51101"/>
<path d="M23.875 18L29.5 23.625M29.5 23.625L23.875 29.25M29.5 23.625H16" stroke="#0F0F0F" stroke-width="1.5" stroke-linecap="round" stroke-linejoin="round"/>
</g>
<rect x="-627.5" y="-94.5" width="872" height="489" rx="19.5" stroke="black"/>
<defs>
<clipPath id="clip0_0_1">
<rect x="-628" y="-95" width="873" height="490" rx="20" fill="white"/>
</clipPath>
</defs>
</svg>
