<svg width="26" height="29" viewBox="0 0 26 29" fill="none" xmlns="http://www.w3.org/2000/svg">
<path fill-rule="evenodd" clip-rule="evenodd" d="M15.5549 5.05621C15.5549 2.4482 17.6788 0.333984 20.2986 0.333984C22.9185 0.333984 25.0423 2.4482 25.0423 5.05621C25.0423 7.66422 22.9185 9.77843 20.2986 9.77843C18.9757 9.77843 17.7802 9.23909 16.9207 8.3714L10.3538 12.8425C10.4146 13.1442 10.4464 13.4558 10.4464 13.7742C10.4464 14.4046 10.3218 15.0072 10.0959 15.558L17.2965 20.2889C18.1136 19.6234 19.1594 19.2229 20.2986 19.2229C22.9185 19.2229 25.0423 21.3371 25.0423 23.9451C25.0423 26.5531 22.9185 28.6673 20.2986 28.6673C17.6788 28.6673 15.5549 26.5531 15.5549 23.9451C15.5549 23.262 15.7012 22.6118 15.9639 22.0248L8.82158 17.3321C7.98842 18.0563 6.89709 18.4964 5.70267 18.4964C3.08281 18.4964 0.958984 16.3822 0.958984 13.7742C0.958984 11.1661 3.08281 9.05193 5.70267 9.05193C7.20918 9.05193 8.55023 9.75093 9.41854 10.8388L15.7829 6.50559C15.6348 6.04824 15.5549 5.56092 15.5549 5.05621Z" fill="#F51101"/>
</svg>
