<svg width="40" height="34" viewBox="0 0 40 34" fill="none" xmlns="http://www.w3.org/2000/svg">
<g filter="url(#filter0_d_533_1468)">
<path d="M35.3296 3.31323C34.329 3.74387 33.277 4.04374 32.1997 4.20544C32.7034 4.11909 33.4445 3.21249 33.7395 2.84554C34.1877 2.29202 34.5292 1.66013 34.7468 0.981972C34.7468 0.931606 34.7972 0.859653 34.7468 0.823677C34.7214 0.809822 34.693 0.802562 34.6641 0.802562C34.6352 0.802562 34.6067 0.809822 34.5813 0.823677C33.4115 1.45716 32.1665 1.94065 30.8758 2.26272C30.8308 2.27647 30.7829 2.2777 30.7373 2.26629C30.6917 2.25488 30.65 2.23126 30.6168 2.19797C30.5163 2.07833 30.4081 1.96537 30.293 1.85979C29.7665 1.38811 29.1692 1.00205 28.5229 0.715749C27.6506 0.357841 26.7082 0.20284 25.7672 0.262449C24.854 0.320117 23.9625 0.565036 23.1481 0.981972C22.3461 1.42155 21.6412 2.01872 21.0759 2.73761C20.4812 3.47753 20.0518 4.33623 19.8167 5.25594C19.6228 6.13077 19.6008 7.03495 19.752 7.91818C19.752 8.06927 19.752 8.09086 19.6224 8.06927C14.4922 7.31378 10.283 5.49338 6.84372 1.58637C6.69262 1.41369 6.61347 1.41369 6.49115 1.58637C4.99454 3.86006 5.72126 7.45768 7.59202 9.2349C7.84385 9.47235 8.10288 9.70259 8.3763 9.91845C7.51857 9.85756 6.68179 9.62512 5.91553 9.2349C5.77163 9.14136 5.69248 9.19173 5.68528 9.36442C5.66489 9.60382 5.66489 9.84453 5.68528 10.0839C5.83542 11.2313 6.28758 12.3182 6.99554 13.2335C7.70349 14.1487 8.64184 14.8596 9.71461 15.2933C9.97613 15.4053 10.2486 15.4897 10.5277 15.5451C9.73363 15.7014 8.91923 15.7258 8.11727 15.6171C7.94459 15.5811 7.87983 15.6746 7.94459 15.8401C9.00229 18.7182 11.2976 19.596 12.9812 20.0853C13.2115 20.1213 13.4417 20.1213 13.7008 20.1789C13.7008 20.1789 13.7008 20.1788 13.6576 20.222C13.1611 21.1286 11.1537 21.7402 10.2327 22.0568C8.55163 22.6606 6.75933 22.8914 4.98015 22.7332C4.69954 22.69 4.63478 22.6972 4.56283 22.7332C4.49088 22.7691 4.56283 22.8483 4.64198 22.9202C5.00174 23.1577 5.3615 23.3663 5.73565 23.5678C6.84951 24.1753 8.02707 24.6579 9.24692 25.0069C15.5643 26.7481 22.6732 25.4673 27.4149 20.7545C31.142 17.0561 32.4515 11.9547 32.4515 6.84609C32.4515 6.65181 32.689 6.53669 32.8257 6.43596C33.7686 5.70125 34.6 4.83357 35.2937 3.86006C35.4138 3.71495 35.4754 3.53018 35.4663 3.34201C35.4663 3.23408 35.4663 3.25567 35.3296 3.31323Z" fill="#F51101"/>
</g>
<defs>
<filter id="filter0_d_533_1468" x="0.533203" y="0.25" width="38.9336" height="33.5" filterUnits="userSpaceOnUse" color-interpolation-filters="sRGB">
<feFlood flood-opacity="0" result="BackgroundImageFix"/>
<feColorMatrix in="SourceAlpha" type="matrix" values="0 0 0 0 0 0 0 0 0 0 0 0 0 0 0 0 0 0 127 0" result="hardAlpha"/>
<feOffset dy="4"/>
<feGaussianBlur stdDeviation="2"/>
<feComposite in2="hardAlpha" operator="out"/>
<feColorMatrix type="matrix" values="0 0 0 0 0 0 0 0 0 0 0 0 0 0 0 0 0 0 0.25 0"/>
<feBlend mode="normal" in2="BackgroundImageFix" result="effect1_dropShadow_533_1468"/>
<feBlend mode="normal" in="SourceGraphic" in2="effect1_dropShadow_533_1468" result="shape"/>
</filter>
</defs>
</svg>
