<svg width="51" height="51" viewBox="0 0 51 51" fill="none" xmlns="http://www.w3.org/2000/svg">
<g clip-path="url(#clip0_501_288)">
<g clip-path="url(#clip1_501_288)">
<path d="M2.14041 17.8799V5.40497C2.14041 3.71431 3.51097 2.34375 5.20163 2.34375H18.1753" stroke="#F8F8F8" stroke-width="1.63265" stroke-miterlimit="10"/>
<path d="M33.0117 2.32227H45.495C47.1857 2.32227 48.5562 3.69282 48.5562 5.38349V18.3486" stroke="#F8F8F8" stroke-width="1.63265" stroke-miterlimit="10"/>
<path d="M48.5563 33.1816V45.6565C48.5563 47.3473 47.1858 48.7178 45.4951 48.7178H32.5214" stroke="#F8F8F8" stroke-width="1.63265" stroke-miterlimit="10"/>
<path d="M17.6849 48.7403H5.20163C3.51097 48.7403 2.14041 47.3697 2.14041 45.6791V32.7109" stroke="#F8F8F8" stroke-width="1.63265" stroke-miterlimit="10"/>
<path d="M48.5543 33.0256C47.9992 35.652 44.2459 35.652 43.6877 33.0256L40.2521 16.8018C39.697 14.1754 35.9439 14.1754 35.3856 16.8018L31.9501 33.0256C31.395 35.652 27.6417 35.652 27.0836 33.0256L23.6479 16.8049C23.0928 14.1785 19.3396 14.1785 18.7814 16.8049L15.3458 33.0256C14.7907 35.652 11.0375 35.652 10.4793 33.0256L7.04682 16.8049C6.4917 14.1785 2.73847 14.1785 2.18028 16.8049" stroke="#F8F8F8" stroke-width="1.63265" stroke-miterlimit="10"/>
</g>
</g>
<defs>
<clipPath id="clip0_501_288">
<rect width="50" height="50" fill="white" transform="translate(0.346725 0.53125)"/>
</clipPath>
<clipPath id="clip1_501_288">
<rect width="50" height="50" fill="white" transform="translate(0.346725 0.53125)"/>
</clipPath>
</defs>
</svg>
