<svg width="51" height="51" viewBox="0 0 51 51" fill="none" xmlns="http://www.w3.org/2000/svg">
<g clip-path="url(#clip0_501_330)">
<g clip-path="url(#clip1_501_330)">
<g clip-path="url(#clip2_501_330)">
<path d="M21.419 36.3253C18.8796 37.895 15.7889 38.628 12.5684 38.1739C5.73171 37.2107 0.71773 31.0421 1.16853 24.1503C1.65826 16.6294 8.26464 11.0543 15.711 11.771C20.644 12.2478 24.6882 15.3613 26.579 19.5839C28.0578 22.8855 30.7757 25.4152 34.0967 26.56" stroke="#F8F8F8" stroke-width="1.26984" stroke-miterlimit="10"/>
<path d="M32.3459 21.5371L34.4443 26.6354L29.346 28.7338" stroke="#F8F8F8" stroke-width="1.26984" stroke-miterlimit="10"/>
<path d="M29.3471 13.6924C31.8865 12.1227 34.9773 11.3897 38.1978 11.8438C45.0345 12.8037 50.0517 18.9756 49.6009 25.8641C49.1111 33.3883 42.5048 38.9633 35.0551 38.2433C30.1222 37.7666 26.0779 34.6532 24.1872 30.4306C22.7083 27.129 19.9872 24.6025 16.6662 23.4576" stroke="#F8F8F8" stroke-width="1.26984" stroke-miterlimit="10"/>
<path d="M18.4173 28.4778L16.319 23.3796L21.4173 21.2812" stroke="#F8F8F8" stroke-width="1.26984" stroke-miterlimit="10"/>
</g>
</g>
</g>
<defs>
<clipPath id="clip0_501_330">
<rect width="50" height="50" fill="white" transform="translate(0.346741 0.201172)"/>
</clipPath>
<clipPath id="clip1_501_330">
<rect width="50" height="50" fill="white" transform="translate(0.346741 0.201172)"/>
</clipPath>
<clipPath id="clip2_501_330">
<rect width="50" height="28.5714" fill="white" transform="translate(0.346741 10.916)"/>
</clipPath>
</defs>
</svg>
