<svg width="68" height="68" viewBox="0 0 68 68" fill="none" xmlns="http://www.w3.org/2000/svg">
<rect x="0.5" y="0.5" width="67" height="67" rx="33.5" fill="#1A1A1A"/>
<rect x="0.5" y="0.5" width="67" height="67" rx="33.5" stroke="#262626"/>
<path fill-rule="evenodd" clip-rule="evenodd" d="M29.625 24.375L42.75 24.375C42.9821 24.375 43.2046 24.4672 43.3687 24.6313C43.5328 24.7954 43.625 25.0179 43.625 25.25V38.375C43.625 38.8582 43.2332 39.25 42.75 39.25C42.2668 39.25 41.875 38.8582 41.875 38.375V27.3624L25.8687 43.3687C25.527 43.7104 24.973 43.7104 24.6313 43.3687C24.2896 43.027 24.2896 42.473 24.6313 42.1313L40.6376 26.125L29.625 26.125C29.1417 26.125 28.75 25.7332 28.75 25.25C28.75 24.7668 29.1417 24.375 29.625 24.375Z" fill="#E7BEB1"/>
</svg>
