<svg width="44" height="44" viewBox="0 0 44 44" fill="none" xmlns="http://www.w3.org/2000/svg">
<rect width="44" height="44" rx="22" fill="white"/>
<path fill-rule="evenodd" clip-rule="evenodd" d="M18.25 13.75L29.5 13.75C29.6989 13.75 29.8897 13.829 30.0303 13.9697C30.171 14.1103 30.25 14.3011 30.25 14.5V25.75C30.25 26.1642 29.9142 26.5 29.5 26.5C29.0858 26.5 28.75 26.1642 28.75 25.75V16.3107L15.0303 30.0303C14.7374 30.3232 14.2626 30.3232 13.9697 30.0303C13.6768 29.7374 13.6768 29.2626 13.9697 28.9697L27.6893 15.25L18.25 15.25C17.8358 15.25 17.5 14.9142 17.5 14.5C17.5 14.0858 17.8358 13.75 18.25 13.75Z" fill="#0F0F0F"/>
</svg>
