<svg width="67" height="66" viewBox="0 0 67 66" fill="none" xmlns="http://www.w3.org/2000/svg">
<rect x="0.833008" y="0.5" width="65" height="65" rx="11.5" fill="#1F1F1F"/>
<rect x="0.833008" y="0.5" width="65" height="65" rx="11.5" stroke="#333333"/>
<path fill-rule="evenodd" clip-rule="evenodd" d="M33.333 47.1673C40.3746 47.1673 46.083 41.459 46.083 34.4173C46.083 27.3757 40.3746 21.6673 33.333 21.6673C26.2914 21.6673 20.583 27.3757 20.583 34.4173C20.583 41.459 26.2914 47.1673 33.333 47.1673ZM33.333 27.6882C33.9198 27.6882 34.3955 28.1638 34.3955 28.7507V34.4173C34.3955 35.0041 33.9198 35.4798 33.333 35.4798C32.7462 35.4798 32.2705 35.0041 32.2705 34.4173V28.7507C32.2705 28.1638 32.7462 27.6882 33.333 27.6882Z" fill="#F51101"/>
<path fill-rule="evenodd" clip-rule="evenodd" d="M29.4372 18.834C29.4372 18.2472 29.9129 17.7715 30.4997 17.7715H36.1663C36.7531 17.7715 37.2288 18.2472 37.2288 18.834C37.2288 19.4208 36.7531 19.8965 36.1663 19.8965H30.4997C29.9129 19.8965 29.4372 19.4208 29.4372 18.834Z" fill="#F51101"/>
</svg>
