<svg width="67" height="66" viewBox="0 0 67 66" fill="none" xmlns="http://www.w3.org/2000/svg">
<rect x="1.16699" y="0.5" width="65" height="65" rx="11.5" fill="#1F1F1F"/>
<rect x="1.16699" y="0.5" width="65" height="65" rx="11.5" stroke="#333333"/>
<path d="M29.6336 23.6625C31.4281 20.4435 32.3253 18.834 33.6667 18.834C35.0081 18.834 35.9053 20.4435 37.6997 23.6625L38.1639 24.4953C38.6738 25.4101 38.9288 25.8674 39.3263 26.1692C39.7239 26.471 40.219 26.583 41.2092 26.8071L42.1107 27.011C45.5952 27.7994 47.3375 28.1936 47.752 29.5266C48.1665 30.8596 46.9787 32.2485 44.6032 35.0264L43.9886 35.745C43.3136 36.5344 42.976 36.9291 42.8242 37.4174C42.6724 37.9057 42.7234 38.4323 42.8254 39.4855L42.9184 40.4444C43.2775 44.1507 43.4571 46.0038 42.3719 46.8276C41.2867 47.6514 39.6554 46.9003 36.3928 45.3981L35.5487 45.0095C34.6216 44.5826 34.158 44.3692 33.6667 44.3692C33.1753 44.3692 32.7117 44.5826 31.7846 45.0095L30.9405 45.3981C27.678 46.9003 26.0467 47.6514 24.9615 46.8276C23.8763 46.0038 24.0558 44.1507 24.415 40.4444L24.5079 39.4855C24.61 38.4323 24.661 37.9057 24.5091 37.4174C24.3573 36.9291 24.0198 36.5344 23.3447 35.7451L22.7301 35.0264C20.3546 32.2485 19.1668 30.8596 19.5813 29.5266C19.9959 28.1936 21.7381 27.7994 25.2227 27.011L26.1242 26.8071C27.1144 26.583 27.6095 26.471 28.007 26.1692C28.4045 25.8674 28.6595 25.4101 29.1694 24.4953L29.6336 23.6625Z" fill="#F51101"/>
</svg>
