<svg width="66" height="66" viewBox="0 0 66 66" fill="none" xmlns="http://www.w3.org/2000/svg">
<rect x="0.5" y="0.5" width="65" height="65" rx="11.5" fill="#1F1F1F"/>
<rect x="0.5" y="0.5" width="65" height="65" rx="11.5" stroke="#333333"/>
<path d="M33.8299 46.3375C34.6597 47.1673 35.9954 47.1673 38.6667 47.1673H41.5C44.1713 47.1673 45.5069 47.1673 46.3368 46.3375C47.1667 45.5076 47.1667 44.172 47.1667 41.5007V24.5007C47.1667 21.8294 47.1667 20.4937 46.3368 19.6638C45.5069 18.834 44.1713 18.834 41.5 18.834H38.6667C35.9954 18.834 34.6597 18.834 33.8299 19.6638C33.1182 20.3755 33.0168 21.4592 33.0024 23.4382L35.8333 23.4382C36.4201 23.4382 36.8958 23.9138 36.8958 24.5007C36.8958 25.0875 36.4201 25.5632 35.8333 25.5632H33V27.6882H37.25C37.8368 27.6882 38.3125 28.1638 38.3125 28.7507C38.3125 29.3375 37.8368 29.8132 37.25 29.8132H33V31.9382H35.8333C36.4201 31.9382 36.8958 32.4138 36.8958 33.0007C36.8958 33.5875 36.4201 34.0632 35.8333 34.0632H33V36.1882L37.25 36.1882C37.8368 36.1882 38.3125 36.6639 38.3125 37.2507C38.3125 37.8375 37.8368 38.3132 37.25 38.3132L33 38.3132V40.4382H35.8333C36.4201 40.4382 36.8958 40.9138 36.8958 41.5007C36.8958 42.0875 36.4201 42.5632 35.8333 42.5632H33.0024C33.0168 44.5421 33.1182 45.6258 33.8299 46.3375Z" fill="#F51101"/>
<path d="M27.333 37.5248L27.333 26.2207C26.2436 26.6698 24.8066 27.055 23.0833 27.055C21.3597 27.055 19.9225 26.6697 18.833 26.2205L18.833 37.5247C18.833 38.4068 18.833 38.848 18.8865 39.2808C18.9496 39.7914 19.0682 40.2936 19.2401 40.7785C19.3858 41.1895 19.583 41.584 19.9775 42.373L22.0579 46.5338C22.252 46.922 22.6489 47.1673 23.083 47.1673C23.5171 47.1673 23.914 46.922 24.1081 46.5338L26.1885 42.373C26.583 41.584 26.7802 41.1895 26.926 40.7785C27.0978 40.2936 27.2164 39.7914 27.2795 39.2808C27.333 38.848 27.333 38.4069 27.333 37.5248Z" fill="#F51101"/>
<path d="M27.333 23.084C27.333 20.7368 25.4302 18.834 23.083 18.834C20.7358 18.834 18.833 20.7368 18.833 23.084L18.833 24.4398C18.8703 24.4585 18.9084 24.4773 18.9471 24.4961C19.9118 24.9638 21.3194 25.4338 23.0833 25.4338C24.8471 25.4338 26.2547 24.9638 27.2194 24.4961C27.258 24.4774 27.2959 24.4587 27.333 24.44V23.084Z" fill="#F51101"/>
</svg>
