<svg width="66" height="66" viewBox="0 0 66 66" fill="none" xmlns="http://www.w3.org/2000/svg">
<rect x="0.5" y="0.5" width="65" height="65" rx="11.5" fill="#1F1F1F"/>
<rect x="0.5" y="0.5" width="65" height="65" rx="11.5" stroke="#333333"/>
<path d="M21.7306 23.7805L23.7795 21.7316C25.7113 19.7999 26.6771 18.834 27.8774 18.834C29.0776 18.834 30.0435 19.7999 31.9752 21.7316L28.5604 25.1465L21.7306 31.9762L21.7306 31.9762C19.7989 30.0444 18.833 29.0786 18.833 27.8784C18.833 26.6781 19.7989 25.7123 21.7306 23.7805L21.7306 23.7805Z" fill="#F51101"/>
<path d="M44.2687 42.2208L42.2198 44.2697C40.2881 46.2014 39.3222 47.1673 38.122 47.1673C36.9218 47.1673 35.9559 46.2015 34.0242 44.2697L34.0241 44.2697L40.8539 37.44L44.2687 34.0251C46.2005 35.9569 47.1663 36.9227 47.1663 38.1229C47.1663 39.3232 46.2005 40.2891 44.2687 42.2208Z" fill="#F51101"/>
<path d="M32.1498 41.729L32.1498 41.729L42.6273 31.2515C41.2013 30.658 39.5123 29.6831 37.915 28.0858C36.3174 26.4882 35.3425 24.799 34.749 23.3728L24.2713 33.8505L24.2713 33.8506C23.4537 34.6682 23.0449 35.077 22.6933 35.5278C22.2785 36.0595 21.9229 36.6348 21.6328 37.2436C21.3869 37.7597 21.204 38.3082 20.8384 39.4051L18.9101 45.1899C18.7302 45.7297 18.8707 46.3249 19.2731 46.7273C19.6754 47.1296 20.2706 47.2701 20.8104 47.0902L26.5952 45.1619C27.6922 44.7963 28.2407 44.6134 28.7567 44.3675C29.3655 44.0774 29.9408 43.7218 30.4726 43.307C30.9233 42.9555 31.3322 42.5466 32.1498 41.729Z" fill="#F51101"/>
<path d="M45.5347 28.3441C47.7102 26.1686 47.7102 22.6413 45.5347 20.4657C43.3591 18.2901 39.8318 18.2901 37.6562 20.4657L36.3995 21.7223C36.4167 21.7743 36.4346 21.827 36.4531 21.8803C36.9137 23.2079 37.7828 24.9483 39.4176 26.5832C41.0525 28.218 42.7929 29.0871 44.1205 29.5477C44.1736 29.5661 44.226 29.5839 44.2778 29.601L45.5347 28.3441Z" fill="#F51101"/>
</svg>
