<svg width="20" height="20" viewBox="0 0 20 20" fill="none" xmlns="http://www.w3.org/2000/svg">
<path fill-rule="evenodd" clip-rule="evenodd" d="M5.625 0.375001L18.75 0.375C18.9821 0.375 19.2046 0.467187 19.3687 0.631282C19.5328 0.795376 19.625 1.01794 19.625 1.25V14.375C19.625 14.8582 19.2332 15.25 18.75 15.25C18.2668 15.25 17.875 14.8582 17.875 14.375V3.36244L9.87186 11.3656L1.86872 19.3687C1.52701 19.7104 0.97299 19.7104 0.631282 19.3687C0.289573 19.027 0.289573 18.473 0.631282 18.1313L16.6376 2.125L5.625 2.125C5.14175 2.125 4.75 1.73325 4.75 1.25C4.75 0.766751 5.14175 0.375001 5.625 0.375001Z" fill="#E7BEB1"/>
</svg>
