<svg width="20" height="20" viewBox="0 0 20 20" fill="none" xmlns="http://www.w3.org/2000/svg">
<path d="M8.24125 3.75308L16.2469 11.7587C16.8498 12.3616 17.8273 12.3616 18.4302 11.7587C19.0332 11.1558 19.0332 10.1783 18.4302 9.57537L17.3386 8.48369L18.7941 7.02812C20.4019 5.42034 20.4019 2.81361 18.7941 1.20583C17.1864 -0.401945 14.5796 -0.401945 12.9719 1.20583L11.5163 2.6614L10.4246 1.56973C9.82169 0.96681 8.84417 0.96681 8.24125 1.56973C7.63833 2.17264 7.63833 3.15017 8.24125 3.75308Z" fill="#F51101"/>
<path d="M8.27227 5.90542L2.70889 11.4688C2.2529 11.9248 2.02489 12.1528 1.88016 12.4259C1.78362 12.6081 1.71499 12.8037 1.67658 13.0063C1.61899 13.3099 1.6546 13.6304 1.72581 14.2713L1.77862 14.7466C1.79806 14.9215 1.80777 15.009 1.81022 15.0929C1.82504 15.6013 1.65107 16.0973 1.32186 16.4851C1.26753 16.5491 1.20532 16.6113 1.0809 16.7357L0.452188 17.3644C-0.150729 17.9673 -0.15073 18.9449 0.452188 19.5478C1.0551 20.1507 2.03263 20.1507 2.63554 19.5478L3.26429 18.919C3.38869 18.7946 3.45089 18.7324 3.51488 18.6781C3.90267 18.3489 4.39862 18.1749 4.90709 18.1897C4.99099 18.1922 5.07844 18.2019 5.25332 18.2213L5.72863 18.2742C6.36957 18.3454 6.69004 18.381 6.99371 18.3234C7.19627 18.285 7.3919 18.2163 7.57407 18.1198C7.84717 17.9751 8.07519 17.7471 8.53117 17.2911L9.96961 15.8525L8.11615 13.9991C7.82326 13.7062 7.82326 13.2313 8.11615 12.9384C8.40905 12.6455 8.88392 12.6455 9.17682 12.9384L11.0303 14.7919L11.9696 13.8525L10.1162 11.9991C9.82326 11.7062 9.82326 11.2313 10.1162 10.9384C10.409 10.6455 10.8839 10.6455 11.1768 10.9384L13.0303 12.7919L14.0945 11.7277L8.27227 5.90542Z" fill="#F51101"/>
</svg>
